<svg xmlns="http://www.w3.org/2000/svg" xmlns:xlink="http://www.w3.org/1999/xlink" width="960" height="600" viewBox="0 0 960 600">
  <rect width="960" height="600" fill="#07140f"/>
  <style>.card{fill:#0d251c;stroke:#2f6853;stroke-width:1}.label{fill:#eaf8ef;font:14px sans-serif}</style>
  <g transform="translate(0 0)"><rect class="card" x="5" y="5" width="150" height="90" rx="5"/><image x="62" y="15" width="36" height="36" href="population.svg"/><text class="label" x="80" y="76" text-anchor="middle">Population</text></g>
  <g transform="translate(160 0)"><rect class="card" x="5" y="5" width="150" height="90" rx="5"/><image x="62" y="15" width="36" height="36" href="tech.svg"/><text class="label" x="80" y="76" text-anchor="middle">Technology</text></g>
  <g transform="translate(320 0)"><rect class="card" x="5" y="5" width="150" height="90" rx="5"/><image x="62" y="15" width="36" height="36" href="food.svg"/><text class="label" x="80" y="76" text-anchor="middle">Food</text></g>
  <g transform="translate(480 0)"><rect class="card" x="5" y="5" width="150" height="90" rx="5"/><image x="62" y="15" width="36" height="36" href="owner.svg"/><text class="label" x="80" y="76" text-anchor="middle">Owner</text></g>
  <g transform="translate(640 0)"><rect class="card" x="5" y="5" width="150" height="90" rx="5"/><image x="62" y="15" width="36" height="36" href="threat.svg"/><text class="label" x="80" y="76" text-anchor="middle">Threat</text></g>
  <g transform="translate(800 0)"><rect class="card" x="5" y="5" width="150" height="90" rx="5"/><image x="62" y="15" width="36" height="36" href="sun.svg"/><text class="label" x="80" y="76" text-anchor="middle">Sun / Time</text></g>
  <g transform="translate(0 100)"><rect class="card" x="5" y="5" width="150" height="90" rx="5"/><image x="62" y="15" width="36" height="36" href="units.svg"/><text class="label" x="80" y="76" text-anchor="middle">Units</text></g>
  <g transform="translate(160 100)"><rect class="card" x="5" y="5" width="150" height="90" rx="5"/><image x="62" y="15" width="36" height="36" href="buildings.svg"/><text class="label" x="80" y="76" text-anchor="middle">Buildings</text></g>
  <g transform="translate(320 100)"><rect class="card" x="5" y="5" width="150" height="90" rx="5"/><image x="62" y="15" width="36" height="36" href="entities.svg"/><text class="label" x="80" y="76" text-anchor="middle">Entities</text></g>
  <g transform="translate(480 100)"><rect class="card" x="5" y="5" width="150" height="90" rx="5"/><image x="62" y="15" width="36" height="36" href="full_models.svg"/><text class="label" x="80" y="76" text-anchor="middle">Full Models</text></g>
  <g transform="translate(640 100)"><rect class="card" x="5" y="5" width="150" height="90" rx="5"/><image x="62" y="15" width="36" height="36" href="impostors.svg"/><text class="label" x="80" y="76" text-anchor="middle">Impostors</text></g>
  <g transform="translate(800 100)"><rect class="card" x="5" y="5" width="150" height="90" rx="5"/><image x="62" y="15" width="36" height="36" href="health.svg"/><text class="label" x="80" y="76" text-anchor="middle">Health</text></g>
  <g transform="translate(0 200)"><rect class="card" x="5" y="5" width="150" height="90" rx="5"/><image x="62" y="15" width="36" height="36" href="stamina.svg"/><text class="label" x="80" y="76" text-anchor="middle">Stamina</text></g>
  <g transform="translate(160 200)"><rect class="card" x="5" y="5" width="150" height="90" rx="5"/><image x="62" y="15" width="36" height="36" href="morale.svg"/><text class="label" x="80" y="76" text-anchor="middle">Morale</text></g>
  <g transform="translate(320 200)"><rect class="card" x="5" y="5" width="150" height="90" rx="5"/><image x="62" y="15" width="36" height="36" href="armor.svg"/><text class="label" x="80" y="76" text-anchor="middle">Armor</text></g>
  <g transform="translate(480 200)"><rect class="card" x="5" y="5" width="150" height="90" rx="5"/><image x="62" y="15" width="36" height="36" href="damage.svg"/><text class="label" x="80" y="76" text-anchor="middle">Damage</text></g>
  <g transform="translate(640 200)"><rect class="card" x="5" y="5" width="150" height="90" rx="5"/><image x="62" y="15" width="36" height="36" href="speed.svg"/><text class="label" x="80" y="76" text-anchor="middle">Speed</text></g>
  <g transform="translate(800 200)"><rect class="card" x="5" y="5" width="150" height="90" rx="5"/><image x="62" y="15" width="36" height="36" href="equipment.svg"/><text class="label" x="80" y="76" text-anchor="middle">Equipment</text></g>
  <g transform="translate(0 300)"><rect class="card" x="5" y="5" width="150" height="90" rx="5"/><image x="62" y="15" width="36" height="36" href="profession.svg"/><text class="label" x="80" y="76" text-anchor="middle">Profession</text></g>
  <g transform="translate(160 300)"><rect class="card" x="5" y="5" width="150" height="90" rx="5"/><image x="62" y="15" width="36" height="36" href="lead_unit.svg"/><text class="label" x="80" y="76" text-anchor="middle">Lead Unit</text></g>
  <g transform="translate(320 300)"><rect class="card" x="5" y="5" width="150" height="90" rx="5"/><image x="62" y="15" width="36" height="36" href="carry.svg"/><text class="label" x="80" y="76" text-anchor="middle">Carrying</text></g>
  <g transform="translate(480 300)"><rect class="card" x="5" y="5" width="150" height="90" rx="5"/><image x="62" y="15" width="36" height="36" href="resource_food.svg"/><text class="label" x="80" y="76" text-anchor="middle">Food Resource</text></g>
  <g transform="translate(640 300)"><rect class="card" x="5" y="5" width="150" height="90" rx="5"/><image x="62" y="15" width="36" height="36" href="resource_wood.svg"/><text class="label" x="80" y="76" text-anchor="middle">Wood</text></g>
  <g transform="translate(800 300)"><rect class="card" x="5" y="5" width="150" height="90" rx="5"/><image x="62" y="15" width="36" height="36" href="resource_stone.svg"/><text class="label" x="80" y="76" text-anchor="middle">Stone</text></g>
  <g transform="translate(0 400)"><rect class="card" x="5" y="5" width="150" height="90" rx="5"/><image x="62" y="15" width="36" height="36" href="resource_metal.svg"/><text class="label" x="80" y="76" text-anchor="middle">Metal</text></g>
  <g transform="translate(160 400)"><rect class="card" x="5" y="5" width="150" height="90" rx="5"/><image x="62" y="15" width="36" height="36" href="resource_tools.svg"/><text class="label" x="80" y="76" text-anchor="middle">Tools</text></g>
  <g transform="translate(320 400)"><rect class="card" x="5" y="5" width="150" height="90" rx="5"/><image x="62" y="15" width="36" height="36" href="resource_weapons.svg"/><text class="label" x="80" y="76" text-anchor="middle">Weapons</text></g>
  <g transform="translate(480 400)"><rect class="card" x="5" y="5" width="150" height="90" rx="5"/><image x="62" y="15" width="36" height="36" href="resource_supply.svg"/><text class="label" x="80" y="76" text-anchor="middle">Supply</text></g>
  <g transform="translate(640 400)"><rect class="card" x="5" y="5" width="150" height="90" rx="5"/><image x="62" y="15" width="36" height="36" href="resource_flint.svg"/><text class="label" x="80" y="76" text-anchor="middle">Flint</text></g>
  <g transform="translate(800 400)"><rect class="card" x="5" y="5" width="150" height="90" rx="5"/><image x="62" y="15" width="36" height="36" href="resource_gold.svg"/><text class="label" x="80" y="76" text-anchor="middle">Gold</text></g>
  <g transform="translate(0 500)"><rect class="card" x="5" y="5" width="150" height="90" rx="5"/><image x="62" y="15" width="36" height="36" href="resource_none.svg"/><text class="label" x="80" y="76" text-anchor="middle">None</text></g>
  <g transform="translate(160 500)"><rect class="card" x="5" y="5" width="150" height="90" rx="5"/><image x="62" y="15" width="36" height="36" href="select.svg"/><text class="label" x="80" y="76" text-anchor="middle">Select</text></g>
  <g transform="translate(320 500)"><rect class="card" x="5" y="5" width="150" height="90" rx="5"/><image x="62" y="15" width="36" height="36" href="add_selection.svg"/><text class="label" x="80" y="76" text-anchor="middle">Add Selection</text></g>
  <g transform="translate(480 500)"><rect class="card" x="5" y="5" width="150" height="90" rx="5"/><image x="62" y="15" width="36" height="36" href="move.svg"/><text class="label" x="80" y="76" text-anchor="middle">Move</text></g>
  <g transform="translate(640 500)"><rect class="card" x="5" y="5" width="150" height="90" rx="5"/><image x="62" y="15" width="36" height="36" href="jog.svg"/><text class="label" x="80" y="76" text-anchor="middle">Jog</text></g>
  <g transform="translate(800 500)"><rect class="card" x="5" y="5" width="150" height="90" rx="5"/><image x="62" y="15" width="36" height="36" href="world.svg"/><text class="label" x="80" y="76" text-anchor="middle">World Map</text></g>
</svg>
